<mxfile host="app.diagrams.net" modified="2020-08-20T02:59:52.287Z" agent="5.0 (Windows NT 10.0; WOW64) AppleWebKit/537.36 (KHTML, like Gecko) Chrome/81.0.4044.138 Safari/537.36" etag="NivGjjmlUbnyihM88m2G" version="13.6.2" type="github">
  <diagram id="ZNVekWjUp0aUjb5goLyr" name="Page-1">
    <mxGraphModel dx="2031" dy="1260" grid="1" gridSize="10" guides="1" tooltips="1" connect="1" arrows="1" fold="1" page="1" pageScale="1" pageWidth="1654" pageHeight="2336" math="0" shadow="0">
      <root>
        <mxCell id="0" />
        <mxCell id="1" parent="0" />
        <mxCell id="-L1vGONxw-1xO7RIm2K2-1" value="&lt;span style=&quot;color: rgb(77 , 77 , 77) ; font-family: &amp;#34;helvetica neue for number&amp;#34; , , &amp;#34;blinkmacsystemfont&amp;#34; , &amp;#34;segoe ui&amp;#34; , &amp;#34;roboto&amp;#34; , &amp;#34;pingfang sc&amp;#34; , &amp;#34;hiragino sans gb&amp;#34; , &amp;#34;microsoft yahei&amp;#34; , &amp;#34;helvetica neue&amp;#34; , &amp;#34;helvetica&amp;#34; , &amp;#34;arial&amp;#34; , sans-serif ; font-size: 13px ; background-color: rgb(255 , 255 , 255)&quot;&gt;ads_ydc_basic_fact_guid_sum_di_2_tdw&lt;/span&gt;" style="rounded=0;whiteSpace=wrap;html=1;fillColor=#d5e8d4;strokeColor=#82b366;" vertex="1" parent="1">
          <mxGeometry x="150" y="500" width="290" height="60" as="geometry" />
        </mxCell>
        <mxCell id="-L1vGONxw-1xO7RIm2K2-9" style="edgeStyle=orthogonalEdgeStyle;rounded=0;orthogonalLoop=1;jettySize=auto;html=1;exitX=0.5;exitY=1;exitDx=0;exitDy=0;" edge="1" parent="1" source="-L1vGONxw-1xO7RIm2K2-2" target="-L1vGONxw-1xO7RIm2K2-1">
          <mxGeometry relative="1" as="geometry" />
        </mxCell>
        <mxCell id="-L1vGONxw-1xO7RIm2K2-2" value="&lt;div style=&quot;font-family: &amp;#34;consolas&amp;#34; , &amp;#34;courier new&amp;#34; , monospace ; font-size: 14px ; line-height: 19px&quot;&gt;&lt;span style=&quot;background-color: rgb(255 , 255 , 255)&quot;&gt;应用宝 venus数据表&lt;/span&gt;&lt;/div&gt;&lt;div style=&quot;font-family: &amp;#34;consolas&amp;#34; , &amp;#34;courier new&amp;#34; , monospace ; font-size: 14px ; line-height: 19px&quot;&gt;&lt;span style=&quot;background-color: rgb(255 , 255 , 255)&quot;&gt;同步任务id：819039754&lt;/span&gt;&lt;/div&gt;&lt;div style=&quot;font-family: &amp;#34;consolas&amp;#34; , &amp;#34;courier new&amp;#34; , monospace ; font-size: 14px ; line-height: 19px&quot;&gt;&lt;span style=&quot;background-color: rgb(255 , 255 , 255)&quot;&gt;soft.ads_ydc_basic_fact_guid_sum_di&lt;/span&gt;&lt;/div&gt;" style="rounded=0;whiteSpace=wrap;html=1;" vertex="1" parent="1">
          <mxGeometry x="150" y="320" width="290" height="60" as="geometry" />
        </mxCell>
        <mxCell id="-L1vGONxw-1xO7RIm2K2-3" value="&lt;font&gt;&lt;span style=&quot;font-size: 15px ; color: rgb(0 , 0 , 0) ; font-style: normal ; font-weight: 400 ; letter-spacing: normal ; text-align: left ; text-indent: 0px ; text-transform: none ; word-spacing: 0px ; background-color: rgb(255 , 255 , 255) ; display: inline ; float: none&quot;&gt;应用宝LT表&lt;br&gt;t_pba_yyb_lt_label_3&lt;/span&gt;&lt;br&gt;&lt;span style=&quot;font-size: 15px ; text-align: left ; background-color: rgb(255 , 255 , 255)&quot;&gt;t_pba_yyb_lt_label_7&lt;br&gt;&lt;/span&gt;&lt;span style=&quot;font-size: 15px ; text-align: left ; background-color: rgb(255 , 255 , 255)&quot;&gt;t_pba_yyb_lt_label_14&lt;br&gt;&lt;/span&gt;&lt;span style=&quot;font-size: 15px ; text-align: left ; background-color: rgb(255 , 255 , 255)&quot;&gt;t_pba_yyb_lt_label_21&lt;br&gt;&lt;/span&gt;&lt;span style=&quot;font-size: 15px ; text-align: left ; background-color: rgb(255 , 255 , 255)&quot;&gt;t_pba_yyb_lt_label_30&lt;br&gt;&lt;/span&gt;&lt;span style=&quot;font-family: &amp;#34;microsoft yahei&amp;#34; , ; text-align: left ; background-color: rgb(255 , 255 , 255)&quot;&gt;&lt;font style=&quot;font-size: 15px&quot;&gt;t_pba_yyb_lt_label_60&lt;/font&gt;&lt;/span&gt;&lt;span style=&quot;font-size: 15px ; text-align: left ; background-color: rgb(255 , 255 , 255)&quot;&gt;&lt;br&gt;&lt;/span&gt;&lt;/font&gt;" style="rounded=0;whiteSpace=wrap;html=1;" vertex="1" parent="1">
          <mxGeometry x="670" y="260" width="280" height="130" as="geometry" />
        </mxCell>
        <mxCell id="-L1vGONxw-1xO7RIm2K2-5" value="&lt;font style=&quot;font-size: 15px&quot;&gt;&lt;span style=&quot;text-align: left ; background-color: rgb(255 , 255 , 255)&quot;&gt;应用宝x天特征聚合表&lt;br&gt;t_pba_yyb_lt_union_2d&lt;br&gt;&lt;/span&gt;&lt;span style=&quot;text-align: left ; background-color: rgb(255 , 255 , 255)&quot;&gt;t_pba_yyb_lt_union_3d&lt;/span&gt;&lt;span style=&quot;text-align: left ; background-color: rgb(255 , 255 , 255)&quot;&gt;&lt;br&gt;t_pba_yyb_lt_union_7d&lt;br&gt;&lt;/span&gt;&lt;span style=&quot;text-align: left ; background-color: rgb(255 , 255 , 255)&quot;&gt;t_pba_yyb_lt_union_14d&lt;br&gt;&lt;/span&gt;&lt;span style=&quot;text-align: left ; background-color: rgb(255 , 255 , 255)&quot;&gt;t_pba_yyb_lt_union_30d&lt;/span&gt;&lt;/font&gt;&lt;span style=&quot;font-family: &amp;#34;microsoft yahei&amp;#34; , ; font-size: 13.3333px ; text-align: left ; background-color: rgb(255 , 255 , 255)&quot;&gt;&lt;br&gt;&lt;/span&gt;" style="rounded=0;whiteSpace=wrap;html=1;" vertex="1" parent="1">
          <mxGeometry x="660" y="640" width="290" height="120" as="geometry" />
        </mxCell>
        <mxCell id="-L1vGONxw-1xO7RIm2K2-7" value="&lt;span style=&quot;color: rgb(255 , 0 , 0) ; font-family: &amp;#34;helvetica neue&amp;#34; ; text-align: left ; background-color: rgb(255 , 255 , 255)&quot;&gt;数据开始时间: 2020.02.01&lt;/span&gt;&lt;br style=&quot;margin: 0px ; padding: 0px ; color: rgb(255 , 0 , 0) ; font-family: &amp;#34;helvetica neue&amp;#34; ; text-align: left ; background-color: rgb(255 , 255 , 255)&quot;&gt;&lt;span style=&quot;color: rgb(255 , 0 , 0) ; font-family: &amp;#34;helvetica neue&amp;#34; ; text-align: left ; background-color: rgb(255 , 255 , 255)&quot;&gt;user_type = new为新增用户标签&lt;/span&gt;&lt;br style=&quot;margin: 0px ; padding: 0px ; color: rgb(255 , 0 , 0) ; font-family: &amp;#34;helvetica neue&amp;#34; ; text-align: left ; background-color: rgb(255 , 255 , 255)&quot;&gt;&lt;span style=&quot;color: rgb(255 , 0 , 0) ; font-family: &amp;#34;helvetica neue&amp;#34; ; text-align: left ; background-color: rgb(255 , 255 , 255)&quot;&gt;user_type 为 “not active“时，用户为后天台活跃用户，不在dau范围内，也不加入LT的计算&lt;/span&gt;" style="ellipse;shape=cloud;whiteSpace=wrap;html=1;" vertex="1" parent="1">
          <mxGeometry x="110" y="640" width="330" height="130" as="geometry" />
        </mxCell>
        <mxCell id="-L1vGONxw-1xO7RIm2K2-8" value="" style="curved=1;endArrow=classic;html=1;exitX=0.515;exitY=0.077;exitDx=0;exitDy=0;exitPerimeter=0;" edge="1" parent="1" target="-L1vGONxw-1xO7RIm2K2-1">
          <mxGeometry width="50" height="50" relative="1" as="geometry">
            <mxPoint x="269.9499999999998" y="650.0100000000002" as="sourcePoint" />
            <mxPoint x="330" y="580" as="targetPoint" />
            <Array as="points">
              <mxPoint x="330" y="630" />
              <mxPoint x="280" y="580" />
            </Array>
          </mxGeometry>
        </mxCell>
        <mxCell id="-L1vGONxw-1xO7RIm2K2-11" value="" style="curved=1;endArrow=classic;html=1;exitX=1;exitY=0.5;exitDx=0;exitDy=0;entryX=0.002;entryY=0.571;entryDx=0;entryDy=0;entryPerimeter=0;" edge="1" parent="1" source="-L1vGONxw-1xO7RIm2K2-1" target="-L1vGONxw-1xO7RIm2K2-3">
          <mxGeometry width="50" height="50" relative="1" as="geometry">
            <mxPoint x="560" y="450" as="sourcePoint" />
            <mxPoint x="610" y="400" as="targetPoint" />
            <Array as="points">
              <mxPoint x="610" y="450" />
              <mxPoint x="560" y="400" />
            </Array>
          </mxGeometry>
        </mxCell>
        <mxCell id="-L1vGONxw-1xO7RIm2K2-13" value="&lt;font style=&quot;font-size: 14px&quot;&gt;&lt;br&gt;select&lt;br&gt;user_type = &#39;new&lt;br&gt;join&amp;nbsp;&lt;br&gt;user_type &amp;lt;&amp;gt; &#39;not_active&#39;&lt;/font&gt;" style="edgeLabel;html=1;align=center;verticalAlign=middle;resizable=0;points=[];" vertex="1" connectable="0" parent="-L1vGONxw-1xO7RIm2K2-11">
          <mxGeometry x="0.4681" y="-14" relative="1" as="geometry">
            <mxPoint as="offset" />
          </mxGeometry>
        </mxCell>
        <mxCell id="-L1vGONxw-1xO7RIm2K2-12" value="" style="curved=1;endArrow=classic;html=1;exitX=1;exitY=0.5;exitDx=0;exitDy=0;" edge="1" parent="1" source="-L1vGONxw-1xO7RIm2K2-1" target="-L1vGONxw-1xO7RIm2K2-5">
          <mxGeometry width="50" height="50" relative="1" as="geometry">
            <mxPoint x="540" y="580" as="sourcePoint" />
            <mxPoint x="590" y="530" as="targetPoint" />
            <Array as="points">
              <mxPoint x="520" y="580" />
              <mxPoint x="630" y="560" />
            </Array>
          </mxGeometry>
        </mxCell>
        <mxCell id="-L1vGONxw-1xO7RIm2K2-14" value="&lt;br&gt;&lt;font style=&quot;font-size: 14px&quot;&gt;select&lt;br&gt;sum()&lt;br&gt;user_type = &#39;new&lt;br&gt;join&amp;nbsp;&lt;br&gt;user_type &amp;lt;&amp;gt; &#39;not_active&lt;/font&gt;&#39;" style="edgeLabel;html=1;align=center;verticalAlign=middle;resizable=0;points=[];" vertex="1" connectable="0" parent="1">
          <mxGeometry x="649.9980997867681" y="569.9967279883298" as="geometry">
            <mxPoint x="-6" y="4" as="offset" />
          </mxGeometry>
        </mxCell>
        <mxCell id="-L1vGONxw-1xO7RIm2K2-21" style="edgeStyle=orthogonalEdgeStyle;rounded=0;orthogonalLoop=1;jettySize=auto;html=1;exitX=1;exitY=0.5;exitDx=0;exitDy=0;entryX=0;entryY=0.5;entryDx=0;entryDy=0;" edge="1" parent="1" source="-L1vGONxw-1xO7RIm2K2-15" target="-L1vGONxw-1xO7RIm2K2-20">
          <mxGeometry relative="1" as="geometry" />
        </mxCell>
        <mxCell id="-L1vGONxw-1xO7RIm2K2-15" value="&lt;font style=&quot;font-size: 15px&quot;&gt;应用宝 t+30 feat&lt;br&gt;t_pba_yyb_lt_feat_v1&lt;/font&gt;" style="rounded=0;whiteSpace=wrap;html=1;" vertex="1" parent="1">
          <mxGeometry x="1030" y="460" width="200" height="60" as="geometry" />
        </mxCell>
        <mxCell id="-L1vGONxw-1xO7RIm2K2-16" value="" style="curved=1;endArrow=classic;html=1;entryX=0.452;entryY=0.024;entryDx=0;entryDy=0;entryPerimeter=0;fillColor=#d80073;strokeColor=#A50040;" edge="1" parent="1" source="-L1vGONxw-1xO7RIm2K2-3" target="-L1vGONxw-1xO7RIm2K2-15">
          <mxGeometry width="50" height="50" relative="1" as="geometry">
            <mxPoint x="1050" y="360" as="sourcePoint" />
            <mxPoint x="1100" y="310" as="targetPoint" />
            <Array as="points">
              <mxPoint x="1020" y="390" />
              <mxPoint x="1080" y="420" />
            </Array>
          </mxGeometry>
        </mxCell>
        <mxCell id="-L1vGONxw-1xO7RIm2K2-17" value="" style="curved=1;endArrow=classic;html=1;exitX=1;exitY=0.5;exitDx=0;exitDy=0;entryX=0;entryY=0.5;entryDx=0;entryDy=0;fillColor=#d80073;strokeColor=#A50040;" edge="1" parent="1" source="-L1vGONxw-1xO7RIm2K2-1" target="-L1vGONxw-1xO7RIm2K2-15">
          <mxGeometry width="50" height="50" relative="1" as="geometry">
            <mxPoint x="800" y="540" as="sourcePoint" />
            <mxPoint x="850" y="490" as="targetPoint" />
            <Array as="points">
              <mxPoint x="790" y="530" />
              <mxPoint x="860" y="490" />
            </Array>
          </mxGeometry>
        </mxCell>
        <mxCell id="-L1vGONxw-1xO7RIm2K2-19" value="&lt;font style=&quot;font-size: 14px&quot;&gt;取新增当天画像&lt;/font&gt;" style="edgeLabel;html=1;align=center;verticalAlign=middle;resizable=0;points=[];" vertex="1" connectable="0" parent="-L1vGONxw-1xO7RIm2K2-17">
          <mxGeometry x="0.6494" y="-1" relative="1" as="geometry">
            <mxPoint as="offset" />
          </mxGeometry>
        </mxCell>
        <mxCell id="-L1vGONxw-1xO7RIm2K2-18" value="" style="curved=1;endArrow=classic;html=1;exitX=1;exitY=0.5;exitDx=0;exitDy=0;entryX=0.5;entryY=1;entryDx=0;entryDy=0;fillColor=#d80073;strokeColor=#A50040;" edge="1" parent="1" source="-L1vGONxw-1xO7RIm2K2-5" target="-L1vGONxw-1xO7RIm2K2-15">
          <mxGeometry width="50" height="50" relative="1" as="geometry">
            <mxPoint x="1010" y="700" as="sourcePoint" />
            <mxPoint x="1060" y="650" as="targetPoint" />
            <Array as="points">
              <mxPoint x="1030" y="700" />
              <mxPoint x="1060" y="630" />
            </Array>
          </mxGeometry>
        </mxCell>
        <mxCell id="-L1vGONxw-1xO7RIm2K2-20" value="&lt;span style=&quot;font-size: 15px&quot;&gt;应用宝 t+30 model&lt;br&gt;t_pba_yyb_lt_model&lt;/span&gt;" style="rounded=0;whiteSpace=wrap;html=1;" vertex="1" parent="1">
          <mxGeometry x="1310" y="460" width="220" height="60" as="geometry" />
        </mxCell>
      </root>
    </mxGraphModel>
  </diagram>
</mxfile>
